<svg width="71" height="34" viewBox="0 0 71 34" fill="none" xmlns="http://www.w3.org/2000/svg">
<path d="M20.272 31.608C18.608 32.28 17.04 32.76 15.568 33.048C14.096 33.336 12.704 33.48 11.392 33.48C7.776 33.48 5.04 32.456 3.184 30.408C1.328 28.36 0.4 25.64 0.4 22.248V19.368C0.4 17.096 0.816 15.128 1.648 13.464C2.48 11.8 3.664 10.504 5.2 9.576C6.736 8.648 8.544 8.184 10.624 8.184C12.32 8.184 13.904 8.536 15.376 9.24C16.88 9.912 18.096 10.984 19.024 12.456C19.984 13.896 20.464 15.752 20.464 18.024C20.464 18.696 20.416 19.416 20.32 20.184C20.224 20.92 20.064 21.704 19.84 22.536H5.728C5.792 24.52 6.288 26.008 7.216 27C8.144 27.992 9.632 28.488 11.68 28.488C12.768 28.488 13.888 28.36 15.04 28.104C16.224 27.848 17.44 27.464 18.688 26.952L20.272 31.608ZM10.624 12.84C9.152 12.84 8 13.32 7.168 14.28C6.368 15.208 5.904 16.552 5.776 18.312H14.992C15.024 18.152 15.04 18.008 15.04 17.88C15.04 17.72 15.04 17.576 15.04 17.448C15.04 15.912 14.608 14.76 13.744 13.992C12.88 13.224 11.84 12.84 10.624 12.84ZM25.4313 20.28V15.48H40.0233V20.28H25.4313Z" fill="#70CBFF"/>
<path d="M52.7095 21V33H46.9495V0.36H57.8455C61.1415 0.36 63.6695 1.208 65.4295 2.904C67.2215 4.568 68.1175 6.808 68.1175 9.624V11.688C68.1175 13.544 67.7175 15.176 66.9175 16.584C66.1175 17.992 64.9655 19.064 63.4615 19.8C66.0855 24.28 68.3255 28.68 70.1815 33H63.6055C62.0055 29 60.1015 25 57.8935 21H52.7095ZM57.8455 5.64H52.7095V15.72H57.8455C59.2535 15.72 60.3255 15.368 61.0615 14.664C61.8295 13.928 62.2135 12.936 62.2135 11.688V9.624C62.2135 8.408 61.8295 7.448 61.0615 6.744C60.3255 6.008 59.2535 5.64 57.8455 5.64Z" fill="#1D7880"/>
</svg>
