<svg width="195" height="27" viewBox="0 0 195 27" fill="none" xmlns="http://www.w3.org/2000/svg">
<path d="M15.704 24.956C14.456 25.46 13.28 25.82 12.176 26.036C11.072 26.252 10.028 26.36 9.044 26.36C6.332 26.36 4.28 25.592 2.888 24.056C1.496 22.52 0.8 20.48 0.8 17.936V15.776C0.8 14.072 1.112 12.596 1.736 11.348C2.36 10.1 3.248 9.128 4.4 8.432C5.552 7.736 6.908 7.388 8.468 7.388C9.74 7.388 10.928 7.652 12.032 8.18C13.16 8.684 14.072 9.488 14.768 10.592C15.488 11.672 15.848 13.064 15.848 14.768C15.848 15.272 15.812 15.812 15.74 16.388C15.668 16.94 15.548 17.528 15.38 18.152H4.796C4.844 19.64 5.216 20.756 5.912 21.5C6.608 22.244 7.724 22.616 9.26 22.616C10.076 22.616 10.916 22.52 11.78 22.328C12.668 22.136 13.58 21.848 14.516 21.464L15.704 24.956ZM8.468 10.88C7.364 10.88 6.5 11.24 5.876 11.96C5.276 12.656 4.928 13.664 4.832 14.984H11.744C11.768 14.864 11.78 14.756 11.78 14.66C11.78 14.54 11.78 14.432 11.78 14.336C11.78 13.184 11.456 12.32 10.808 11.744C10.16 11.168 9.38 10.88 8.468 10.88ZM145.1 4.292H140.744V0.00799775H145.1V4.292ZM144.992 26H140.852V7.748H144.992V26Z" fill="#70CBFF"/>
<path d="M26.7805 16.46V12.86H37.7245V16.46H26.7805ZM54.4462 17V26H50.1262V1.52H58.2982C60.7702 1.52 62.6662 2.156 63.9862 3.428C65.3302 4.676 66.0022 6.356 66.0022 8.468V10.016C66.0022 11.408 65.7022 12.632 65.1022 13.688C64.5022 14.744 63.6382 15.548 62.5102 16.1C64.4782 19.46 66.1582 22.76 67.5502 26H62.6182C61.4182 23 59.9902 20 58.3342 17H54.4462ZM58.2982 5.48H54.4462V13.04H58.2982C59.3542 13.04 60.1582 12.776 60.7102 12.248C61.2862 11.696 61.5742 10.952 61.5742 10.016V8.468C61.5742 7.556 61.2862 6.836 60.7102 6.308C60.1582 5.756 59.3542 5.48 58.2982 5.48ZM85.3837 24.956C84.1357 25.46 82.9597 25.82 81.8557 26.036C80.7517 26.252 79.7077 26.36 78.7237 26.36C76.0117 26.36 73.9597 25.592 72.5677 24.056C71.1757 22.52 70.4797 20.48 70.4797 17.936V15.776C70.4797 14.072 70.7917 12.596 71.4157 11.348C72.0397 10.1 72.9277 9.128 74.0797 8.432C75.2317 7.736 76.5877 7.388 78.1477 7.388C79.4197 7.388 80.6077 7.652 81.7117 8.18C82.8397 8.684 83.7517 9.488 84.4477 10.592C85.1677 11.672 85.5277 13.064 85.5277 14.768C85.5277 15.272 85.4917 15.812 85.4197 16.388C85.3477 16.94 85.2277 17.528 85.0597 18.152H74.4757C74.5237 19.64 74.8957 20.756 75.5917 21.5C76.2877 22.244 77.4037 22.616 78.9397 22.616C79.7557 22.616 80.5957 22.52 81.4597 22.328C82.3477 22.136 83.2597 21.848 84.1957 21.464L85.3837 24.956ZM78.1477 10.88C77.0437 10.88 76.1797 11.24 75.5557 11.96C74.9557 12.656 74.6077 13.664 74.5117 14.984H81.4237C81.4477 14.864 81.4597 14.756 81.4597 14.66C81.4597 14.54 81.4597 14.432 81.4597 14.336C81.4597 13.184 81.1357 12.32 80.4877 11.744C79.8397 11.168 79.0597 10.88 78.1477 10.88ZM93.4651 15.812V17.936C93.4651 19.472 93.7411 20.624 94.2931 21.392C94.8451 22.16 95.7331 22.544 96.9571 22.544C97.5571 22.544 98.2291 22.472 98.9731 22.328C99.7411 22.16 100.569 21.908 101.457 21.572L102.645 25.064C101.565 25.496 100.545 25.82 99.5851 26.036C98.6251 26.252 97.6771 26.36 96.7411 26.36C94.3411 26.36 92.5051 25.592 91.2331 24.056C89.9611 22.52 89.3251 20.48 89.3251 17.936V15.812C89.3251 13.244 89.9611 11.204 91.2331 9.692C92.5051 8.156 94.3411 7.388 96.7411 7.388C97.6531 7.388 98.5771 7.496 99.5131 7.712C100.449 7.928 101.433 8.24 102.465 8.648L101.277 12.212C99.5491 11.54 98.1091 11.204 96.9571 11.204C95.7331 11.204 94.8451 11.588 94.2931 12.356C93.7411 13.1 93.4651 14.252 93.4651 15.812ZM116.73 11.528C115.602 11.528 114.522 11.708 113.49 12.068C112.482 12.404 111.51 12.956 110.574 13.724V26H106.434V7.748H110.358V10.556C111.582 9.404 112.674 8.588 113.634 8.108C114.594 7.628 115.626 7.388 116.73 7.388V11.528ZM131.228 26V23.588C130.124 24.548 129.092 25.256 128.132 25.712C127.172 26.144 126.2 26.36 125.216 26.36C123.584 26.36 122.324 25.808 121.436 24.704C120.548 23.576 120.104 22.004 120.104 19.988V7.748H124.244V19.484C124.244 21.5 124.988 22.508 126.476 22.508C127.076 22.508 127.724 22.364 128.42 22.076C129.14 21.788 130.004 21.236 131.012 20.42V7.748H135.152V26H131.228ZM161.676 25.388C161.052 25.676 160.332 25.904 159.516 26.072C158.7 26.264 157.872 26.36 157.032 26.36C155.64 26.36 154.524 26.072 153.684 25.496C152.844 24.92 152.232 24.116 151.848 23.084C151.488 22.052 151.308 20.876 151.308 19.556V11.348H148.356V7.748H151.308V2.996H155.448V7.748H161.136V11.348H155.448V19.556C155.448 20.66 155.652 21.428 156.06 21.86C156.492 22.268 157.104 22.472 157.896 22.472C158.28 22.472 158.688 22.436 159.12 22.364C159.576 22.268 160.08 22.112 160.632 21.896L161.676 25.388ZM178.864 24.956C177.616 25.46 176.44 25.82 175.336 26.036C174.232 26.252 173.188 26.36 172.204 26.36C169.492 26.36 167.44 25.592 166.048 24.056C164.656 22.52 163.96 20.48 163.96 17.936V15.776C163.96 14.072 164.272 12.596 164.896 11.348C165.52 10.1 166.408 9.128 167.56 8.432C168.712 7.736 170.068 7.388 171.628 7.388C172.9 7.388 174.088 7.652 175.192 8.18C176.32 8.684 177.232 9.488 177.928 10.592C178.648 11.672 179.008 13.064 179.008 14.768C179.008 15.272 178.972 15.812 178.9 16.388C178.828 16.94 178.708 17.528 178.54 18.152H167.956C168.004 19.64 168.376 20.756 169.072 21.5C169.768 22.244 170.884 22.616 172.42 22.616C173.236 22.616 174.076 22.52 174.94 22.328C175.828 22.136 176.74 21.848 177.676 21.464L178.864 24.956ZM171.628 10.88C170.524 10.88 169.66 11.24 169.036 11.96C168.436 12.656 168.088 13.664 167.992 14.984H174.904C174.928 14.864 174.94 14.756 174.94 14.66C174.94 14.54 174.94 14.432 174.94 14.336C174.94 13.184 174.616 12.32 173.968 11.744C173.32 11.168 172.54 10.88 171.628 10.88ZM194.074 11.528C192.946 11.528 191.866 11.708 190.834 12.068C189.826 12.404 188.854 12.956 187.918 13.724V26H183.778V7.748H187.702V10.556C188.926 9.404 190.018 8.588 190.978 8.108C191.938 7.628 192.97 7.388 194.074 7.388V11.528Z" fill="#1D7880"/>
</svg>
