<svg width="181" height="27" viewBox="0 0 181 27" fill="none" xmlns="http://www.w3.org/2000/svg">
<path d="M15.704 24.956C14.456 25.46 13.28 25.82 12.176 26.036C11.072 26.252 10.028 26.36 9.044 26.36C6.332 26.36 4.28 25.592 2.888 24.056C1.496 22.52 0.8 20.48 0.8 17.936V15.776C0.8 14.072 1.112 12.596 1.736 11.348C2.36 10.1 3.248 9.128 4.4 8.432C5.552 7.736 6.908 7.388 8.468 7.388C9.74 7.388 10.928 7.652 12.032 8.18C13.16 8.684 14.072 9.488 14.768 10.592C15.488 11.672 15.848 13.064 15.848 14.768C15.848 15.272 15.812 15.812 15.74 16.388C15.668 16.94 15.548 17.528 15.38 18.152H4.796C4.844 19.64 5.216 20.756 5.912 21.5C6.608 22.244 7.724 22.616 9.26 22.616C10.076 22.616 10.916 22.52 11.78 22.328C12.668 22.136 13.58 21.848 14.516 21.464L15.704 24.956ZM8.468 10.88C7.364 10.88 6.5 11.24 5.876 11.96C5.276 12.656 4.928 13.664 4.832 14.984H11.744C11.768 14.864 11.78 14.756 11.78 14.66C11.78 14.54 11.78 14.432 11.78 14.336C11.78 13.184 11.456 12.32 10.808 11.744C10.16 11.168 9.38 10.88 8.468 10.88ZM131.178 4.292H126.822V0.00799775H131.178V4.292ZM131.07 26H126.93V7.748H131.07V26Z" fill="#FA7800"/>
<path d="M26.7805 16.46V12.86H37.7245V16.46H26.7805ZM54.4462 17V26H50.1262V1.52H58.2982C60.7702 1.52 62.6662 2.156 63.9862 3.428C65.3302 4.676 66.0022 6.356 66.0022 8.468V10.016C66.0022 11.408 65.7022 12.632 65.1022 13.688C64.5022 14.744 63.6382 15.548 62.5102 16.1C64.4782 19.46 66.1582 22.76 67.5502 26H62.6182C61.4182 23 59.9902 20 58.3342 17H54.4462ZM58.2982 5.48H54.4462V13.04H58.2982C59.3542 13.04 60.1582 12.776 60.7102 12.248C61.2862 11.696 61.5742 10.952 61.5742 10.016V8.468C61.5742 7.556 61.2862 6.836 60.7102 6.308C60.1582 5.756 59.3542 5.48 58.2982 5.48ZM85.3837 24.956C84.1357 25.46 82.9597 25.82 81.8557 26.036C80.7517 26.252 79.7077 26.36 78.7237 26.36C76.0117 26.36 73.9597 25.592 72.5677 24.056C71.1757 22.52 70.4797 20.48 70.4797 17.936V15.776C70.4797 14.072 70.7917 12.596 71.4157 11.348C72.0397 10.1 72.9277 9.128 74.0797 8.432C75.2317 7.736 76.5877 7.388 78.1477 7.388C79.4197 7.388 80.6077 7.652 81.7117 8.18C82.8397 8.684 83.7517 9.488 84.4477 10.592C85.1677 11.672 85.5277 13.064 85.5277 14.768C85.5277 15.272 85.4917 15.812 85.4197 16.388C85.3477 16.94 85.2277 17.528 85.0597 18.152H74.4757C74.5237 19.64 74.8957 20.756 75.5917 21.5C76.2877 22.244 77.4037 22.616 78.9397 22.616C79.7557 22.616 80.5957 22.52 81.4597 22.328C82.3477 22.136 83.2597 21.848 84.1957 21.464L85.3837 24.956ZM78.1477 10.88C77.0437 10.88 76.1797 11.24 75.5557 11.96C74.9557 12.656 74.6077 13.664 74.5117 14.984H81.4237C81.4477 14.864 81.4597 14.756 81.4597 14.66C81.4597 14.54 81.4597 14.432 81.4597 14.336C81.4597 13.184 81.1357 12.32 80.4877 11.744C79.8397 11.168 79.0597 10.88 78.1477 10.88ZM93.4651 15.812V17.936C93.4651 19.472 93.7411 20.624 94.2931 21.392C94.8451 22.16 95.7331 22.544 96.9571 22.544C97.5571 22.544 98.2291 22.472 98.9731 22.328C99.7411 22.16 100.569 21.908 101.457 21.572L102.645 25.064C101.565 25.496 100.545 25.82 99.5851 26.036C98.6251 26.252 97.6771 26.36 96.7411 26.36C94.3411 26.36 92.5051 25.592 91.2331 24.056C89.9611 22.52 89.3251 20.48 89.3251 17.936V15.812C89.3251 13.244 89.9611 11.204 91.2331 9.692C92.5051 8.156 94.3411 7.388 96.7411 7.388C97.6531 7.388 98.5771 7.496 99.5131 7.712C100.449 7.928 101.433 8.24 102.465 8.648L101.277 12.212C99.5491 11.54 98.1091 11.204 96.9571 11.204C95.7331 11.204 94.8451 11.588 94.2931 12.356C93.7411 13.1 93.4651 14.252 93.4651 15.812ZM117.306 26V23.588C116.202 24.548 115.17 25.256 114.21 25.712C113.25 26.144 112.278 26.36 111.294 26.36C109.662 26.36 108.402 25.808 107.514 24.704C106.626 23.576 106.182 22.004 106.182 19.988V7.748H110.322V19.484C110.322 21.5 111.066 22.508 112.554 22.508C113.154 22.508 113.802 22.364 114.498 22.076C115.218 21.788 116.082 21.236 117.09 20.42V7.748H121.23V26H117.306ZM147.754 25.388C147.13 25.676 146.41 25.904 145.594 26.072C144.778 26.264 143.95 26.36 143.11 26.36C141.718 26.36 140.602 26.072 139.762 25.496C138.922 24.92 138.31 24.116 137.926 23.084C137.566 22.052 137.386 20.876 137.386 19.556V11.348H134.434V7.748H137.386V2.996H141.526V7.748H147.214V11.348H141.526V19.556C141.526 20.66 141.73 21.428 142.138 21.86C142.57 22.268 143.182 22.472 143.974 22.472C144.358 22.472 144.766 22.436 145.198 22.364C145.654 22.268 146.158 22.112 146.71 21.896L147.754 25.388ZM164.942 24.956C163.694 25.46 162.518 25.82 161.414 26.036C160.31 26.252 159.266 26.36 158.282 26.36C155.57 26.36 153.518 25.592 152.126 24.056C150.734 22.52 150.038 20.48 150.038 17.936V15.776C150.038 14.072 150.35 12.596 150.974 11.348C151.598 10.1 152.486 9.128 153.638 8.432C154.79 7.736 156.146 7.388 157.706 7.388C158.978 7.388 160.166 7.652 161.27 8.18C162.398 8.684 163.31 9.488 164.006 10.592C164.726 11.672 165.086 13.064 165.086 14.768C165.086 15.272 165.05 15.812 164.978 16.388C164.906 16.94 164.786 17.528 164.618 18.152H154.034C154.082 19.64 154.454 20.756 155.15 21.5C155.846 22.244 156.962 22.616 158.498 22.616C159.314 22.616 160.154 22.52 161.018 22.328C161.906 22.136 162.818 21.848 163.754 21.464L164.942 24.956ZM157.706 10.88C156.602 10.88 155.738 11.24 155.114 11.96C154.514 12.656 154.166 13.664 154.07 14.984H160.982C161.006 14.864 161.018 14.756 161.018 14.66C161.018 14.54 161.018 14.432 161.018 14.336C161.018 13.184 160.694 12.32 160.046 11.744C159.398 11.168 158.618 10.88 157.706 10.88ZM180.152 11.528C179.024 11.528 177.944 11.708 176.912 12.068C175.904 12.404 174.932 12.956 173.996 13.724V26H169.856V7.748H173.78V10.556C175.004 9.404 176.096 8.588 177.056 8.108C178.016 7.628 179.048 7.388 180.152 7.388V11.528Z" fill="white"/>
</svg>
