<svg width="68" height="26" viewBox="0 0 68 26" fill="none" xmlns="http://www.w3.org/2000/svg">
<path d="M15.704 23.956C14.456 24.46 13.28 24.82 12.176 25.036C11.072 25.252 10.028 25.36 9.044 25.36C6.332 25.36 4.28 24.592 2.888 23.056C1.496 21.52 0.8 19.48 0.8 16.936V14.776C0.8 13.072 1.112 11.596 1.736 10.348C2.36 9.1 3.248 8.128 4.4 7.432C5.552 6.736 6.908 6.388 8.468 6.388C9.74 6.388 10.928 6.652 12.032 7.18C13.16 7.684 14.072 8.488 14.768 9.592C15.488 10.672 15.848 12.064 15.848 13.768C15.848 14.272 15.812 14.812 15.74 15.388C15.668 15.94 15.548 16.528 15.38 17.152H4.796C4.844 18.64 5.216 19.756 5.912 20.5C6.608 21.244 7.724 21.616 9.26 21.616C10.076 21.616 10.916 21.52 11.78 21.328C12.668 21.136 13.58 20.848 14.516 20.464L15.704 23.956ZM8.468 9.88C7.364 9.88 6.5 10.24 5.876 10.96C5.276 11.656 4.928 12.664 4.832 13.984H11.744C11.768 13.864 11.78 13.756 11.78 13.66C11.78 13.54 11.78 13.432 11.78 13.336C11.78 12.184 11.456 11.32 10.808 10.744C10.16 10.168 9.38 9.88 8.468 9.88Z" fill="#70CBFF"/>
<path d="M26.7805 15.46V11.86H37.7245V15.46H26.7805ZM54.4462 16V25H50.1262V0.52H58.2982C60.7702 0.52 62.6662 1.156 63.9862 2.428C65.3302 3.676 66.0022 5.356 66.0022 7.468V9.016C66.0022 10.408 65.7022 11.632 65.1022 12.688C64.5022 13.744 63.6382 14.548 62.5102 15.1C64.4782 18.46 66.1582 21.76 67.5502 25H62.6182C61.4182 22 59.9902 19 58.3342 16H54.4462ZM58.2982 4.48H54.4462V12.04H58.2982C59.3542 12.04 60.1582 11.776 60.7102 11.248C61.2862 10.696 61.5742 9.952 61.5742 9.016V7.468C61.5742 6.556 61.2862 5.836 60.7102 5.308C60.1582 4.756 59.3542 4.48 58.2982 4.48Z" fill="#1D7880"/>
</svg>
